<?xml version="1.0" encoding="UTF-8" standalone="no"?>
<!-- Created with Inkscape (http://www.inkscape.org/) -->

<svg
   width="73.784286mm"
   height="75.188499mm"
   viewBox="0 0 73.784286 75.188499"
   version="1.1"
   id="svg1"
   xml:space="preserve"
   sodipodi:docname="MountainFavicon.svg"
   inkscape:version="1.4.3 (0d15f75, 2025-12-25)"
   xmlns:inkscape="http://www.inkscape.org/namespaces/inkscape"
   xmlns:sodipodi="http://sodipodi.sourceforge.net/DTD/sodipodi-0.dtd"
   xmlns="http://www.w3.org/2000/svg"
   xmlns:svg="http://www.w3.org/2000/svg"><sodipodi:namedview
     id="namedview1"
     pagecolor="#ffffff"
     bordercolor="#000000"
     borderopacity="0.25"
     inkscape:showpageshadow="2"
     inkscape:pageopacity="0.0"
     inkscape:pagecheckerboard="0"
     inkscape:deskcolor="#d1d1d1"
     inkscape:document-units="mm"
     inkscape:zoom="1.5282058"
     inkscape:cx="267.30694"
     inkscape:cy="78.196276"
     inkscape:window-width="2560"
     inkscape:window-height="1494"
     inkscape:window-x="3829"
     inkscape:window-y="-11"
     inkscape:window-maximized="1"
     inkscape:current-layer="layer1"><inkscape:page
       x="0"
       y="0"
       width="73.784286"
       height="75.188499"
       id="page2"
       margin="0"
       bleed="0" /></sodipodi:namedview><defs
     id="defs1" /><g
     inkscape:label="Layer 1"
     inkscape:groupmode="layer"
     id="layer1"><g
       id="g1"
       transform="translate(-61.907188,-18.231277)"><path
         style="fill:#8ccdfe"
         d="m 61.907188,85.609085 c 0,-6.533107 2.36029,-10.149999 14.429977,-22.112403 7.936488,-7.865942 15.640653,-14.301713 17.120368,-14.301713 3.38471,0 42.014447,38.096963 42.014447,41.434991 0,1.562301 -5.25616,2.213126 -14.36812,1.77908 -11.74796,-0.559612 -14.2572,-1.364674 -13.75986,-4.414702 0.87732,-5.38029 -12.020809,-10.498621 -16.690396,-6.623208 -1.888715,1.567494 -5.654506,2.269321 -8.368425,1.559616 -3.235433,-0.846085 -7.593091,0.737511 -12.656194,4.599327 l -7.721797,5.889702 z"
         id="path4" /><path
         style="fill:#8bb4fc"
         d="m 69.953338,87.262114 c 4.597151,-3.72555 8.631315,-5.169181 12.099078,-4.329669 2.861308,0.692696 6.739767,-0.01647 8.618797,-1.575929 4.913066,-4.077483 17.017677,1.134455 16.565837,7.132826 -0.30018,3.984984 -2.32913,4.383684 -22.255354,4.373306 L 63.056638,92.851229 Z M 115.23191,68.160893 C 104.73207,57.729635 94.932107,49.194969 93.454216,49.194969 c -1.477891,0 -9.180563,6.435771 -17.117051,14.301713 L 61.907188,77.798395 v -11.48202 c 0,-11.297267 0.296223,-11.776506 18.409512,-29.78356 l 18.409511,-18.301538 18.482639,18.482634 18.48263,18.482635 -0.68447,15.965136 -0.68448,15.965136 z"
         id="path3" /><path
         style="fill:#07090e"
         d="M 61.907188,36.55102 V 19.309271 H 79.666127 97.425065 L 80.298388,36.55102 c -9.419673,9.482962 -17.411195,17.241749 -17.758939,17.241749 -0.347743,0 -0.632261,-7.758787 -0.632261,-17.241749 z m 55.173602,0 -17.126682,-17.241749 h 17.758942 17.75893 V 36.55102 c 0,9.482962 -0.28451,17.241749 -0.63226,17.241749 -0.34774,0 -8.33926,-7.758787 -17.75893,-17.241749 z"
         id="path2" /></g><path
       style="display:none;fill:#7e8893;stroke-width:1"
       d="M 68.915323,47.876 98.93699,19.135582 127.41743,47.876"
       id="path1"
       sodipodi:nodetypes="ccc" /></g></svg>
