<?xml version="1.0" encoding="UTF-8" standalone="no"?>
<!-- Created with Inkscape (http://www.inkscape.org/) -->

<svg
   width="73.898232mm"
   height="74.632477mm"
   viewBox="0 0 73.898232 74.632477"
   version="1.1"
   id="svg1"
   xml:space="preserve"
   sodipodi:docname="MountainFavicon.svg"
   inkscape:version="1.4.3 (0d15f75, 2025-12-25)"
   inkscape:export-filename="favicon.svg"
   inkscape:export-xdpi="96"
   inkscape:export-ydpi="96"
   xmlns:inkscape="http://www.inkscape.org/namespaces/inkscape"
   xmlns:sodipodi="http://sodipodi.sourceforge.net/DTD/sodipodi-0.dtd"
   xmlns="http://www.w3.org/2000/svg"
   xmlns:svg="http://www.w3.org/2000/svg"><sodipodi:namedview
     id="namedview1"
     pagecolor="#ffffff"
     bordercolor="#000000"
     borderopacity="0.25"
     inkscape:showpageshadow="2"
     inkscape:pageopacity="0.0"
     inkscape:pagecheckerboard="0"
     inkscape:deskcolor="#d1d1d1"
     inkscape:document-units="mm"
     inkscape:zoom="3.0564115"
     inkscape:cx="227.22725"
     inkscape:cy="132.34474"
     inkscape:window-width="3840"
     inkscape:window-height="2054"
     inkscape:window-x="-11"
     inkscape:window-y="-11"
     inkscape:window-maximized="1"
     inkscape:current-layer="layer1"><inkscape:page
       x="1.5817899e-24"
       y="0"
       width="73.898239"
       height="74.632477"
       id="page2"
       margin="0"
       bleed="0" /></sodipodi:namedview><defs
     id="defs1" /><g
     inkscape:label="Layer 1"
     inkscape:groupmode="layer"
     id="layer1"
     transform="translate(0.00526931,9.1400003e-4)"><g
       id="g1"
       transform="translate(-61.907188,-18.231277)"
       inkscape:export-filename="favicon.svg"
       inkscape:export-xdpi="96"
       inkscape:export-ydpi="96"><path
         style="fill:#8ccdfe"
         d="m 61.92883,77.341969 c 0,-6.533107 2.338648,-1.882883 14.408335,-13.845287 7.936488,-7.865942 15.640653,-14.301713 17.120368,-14.301713 3.38471,0 42.133477,37.804801 42.133477,41.142829 0,1.562301 -0.0147,2.064204 -0.26317,2.076652 -11.51805,0.577067 -28.28403,0.249701 -36.111504,0.260266 -5.451345,0.0074 -3.893145,-15.178999 -8.562732,-11.303586 -1.888715,1.567494 -5.654506,2.269321 -8.368425,1.559616 -3.235433,-0.846085 -7.593091,0.737511 -12.656194,4.599327 l -7.700155,5.316198 z"
         id="path4"
         sodipodi:nodetypes="ssssssssscs" /><path
         style="fill:#8bb4fc"
         d="m 69.866771,87.229652 c 4.837392,-3.40781 8.739524,-5.439702 12.207287,-4.60019 2.861308,0.692696 6.718125,0.286513 8.597155,-1.272946 4.913066,-4.077483 17.017677,1.134455 16.565837,7.132826 -0.30018,3.984984 -2.32913,4.383684 -22.255354,4.373306 L 61.963734,92.797125 Z M 115.23191,68.160893 C 114.80047,67.69062 94.932107,49.194969 93.454216,49.194969 c -1.477891,0 -9.180563,6.435771 -17.117051,14.301713 L 61.907188,77.798395 v -11.48202 c 0,-5.648634 0.09752,-13.005434 0.269858,-13.385606 2.379707,-5.249649 9.083009,-7.394427 18.139654,-16.397954 l 18.409511,-18.301538 18.482639,18.482634 18.48234,18.482366 -0.0415,16.087829 -0.0418,19.086941 z"
         id="path3"
         sodipodi:nodetypes="ssssscsssscssscccccs" /><path
         style="fill:#07090e"
         d="m 117.77426,18.238066 h 17.75893 l -0.0612,18.312954 c -0.0317,9.482909 0.56696,18.645257 0.21921,18.645257 -0.34774,0 -9.1353,-9.217675 -18.6104,-18.645257 L 98.724017,18.231369 80.363426,36.53763 c -8.402021,8.377159 -15.951922,15.116471 -17.76784,16.52492 -0.229819,0.178251 -0.369039,0.27113 -0.408105,0.27113 -0.347743,0 -0.280293,-7.299698 -0.280293,-16.78266 V 18.238063 h 17.758939 l 19.058847,-0.0077 z"
         id="path2"
         sodipodi:nodetypes="ccssscsssscccc" /></g><path
       style="display:none;fill:#7e8893;stroke-width:1"
       d="M 68.915323,47.876 98.93699,19.135582 127.41743,47.876"
       id="path1"
       sodipodi:nodetypes="ccc" /></g></svg>
